<svg xmlns="http://www.w3.org/2000/svg" version="1.1" xmlns:xlink="http://www.w3.org/1999/xlink" xmlns:svgjs="http://svgjs.dev/svgjs" width="1000" height="623" viewBox="0 0 1000 623"><g transform="matrix(1,0,0,1,-0.6060606060606233,0.2522267206477409)"><svg viewBox="0 0 396 247" data-background-color="#1ebbd7" preserveAspectRatio="xMidYMid meet" height="623" width="1000" xmlns="http://www.w3.org/2000/svg" xmlns:xlink="http://www.w3.org/1999/xlink"><g id="tight-bounds" transform="matrix(1,0,0,1,0.2400000000000091,-0.09999999999999432)"><svg viewBox="0 0 395.52 247.2" height="247.2" width="395.52"><g><svg></svg></g><g><svg viewBox="0 0 395.52 247.2" height="247.2" width="395.52"><g transform="matrix(1,0,0,1,39.55199999999999,94.14504387360763)"><svg viewBox="0 0 316.416 58.90991225278472" height="58.90991225278472" width="316.416"><g><svg viewBox="0 0 316.416 58.90991225278472" height="58.90991225278472" width="316.416"><g><svg viewBox="0 0 316.416 58.90991225278472" height="58.90991225278472" width="316.416"><g><svg viewBox="0 0 316.416 58.90991225278472" height="58.90991225278472" width="316.416"><g><svg viewBox="0 0 316.416 58.90991225278472" height="58.90991225278472" width="316.416"><g><svg viewBox="0 0 316.416 58.90991225278472" height="58.90991225278472" width="316.416"><g transform="matrix(1,0,0,1,0,0)"><svg width="316.416" viewBox="0.24 -38.09 214.78 39.99" height="58.90991225278472" data-palette-color="#ffffff"><path d="M17.43-34.28L17.43-34.28Q17.43-33.15 16.72-32.32 16.02-31.49 15.04-30.96L15.04-30.96Q14.16-30.42 13.23-29.81 12.3-29.2 11.52-28.44 10.74-27.69 10.25-26.76 9.77-25.83 9.77-24.66L9.77-24.66Q9.77-23.63 10.25-22.8 10.74-21.97 11.45-21.17 12.16-20.36 13.01-19.51 13.87-18.65 14.58-17.6 15.28-16.55 15.77-15.23 16.26-13.92 16.26-12.16L16.26-12.16Q16.26-10.94 15.75-9.4 15.23-7.86 14.36-6.3 13.48-4.74 12.28-3.27 11.08-1.81 9.74-0.66 8.4 0.49 6.93 1.2 5.47 1.9 4.1 1.9L4.1 1.9Q2.59 1.9 1.42 1.07 0.24 0.24 0.24-1.42L0.24-1.42Q0.24-2.54 0.78-3.49 1.32-4.44 2.1-5.32 2.88-6.2 3.83-7.03 4.79-7.86 5.57-8.69 6.35-9.52 6.88-10.42 7.42-11.33 7.42-12.35L7.42-12.35Q7.42-13.77 6.42-15.26 5.42-16.75 4.2-18.33 2.98-19.92 1.98-21.58 0.98-23.24 0.98-24.95L0.98-24.95Q0.98-27.05 2.1-29.37 3.22-31.69 4.98-33.62 6.74-35.55 8.94-36.82 11.13-38.09 13.28-38.09L13.28-38.09Q14.99-38.09 16.21-37.06 17.43-36.04 17.43-34.28ZM30.32 1.61L30.32 1.61Q27.34 1.61 25.14 0.12 22.95-1.37 21.51-3.88 20.07-6.4 19.36-9.72 18.65-13.04 18.65-16.7L18.65-16.7Q18.65-20.12 19.41-23.63 20.16-27.15 21.73-29.98 23.29-32.81 25.68-34.62 28.07-36.43 31.39-36.43L31.39-36.43Q34.62-36.43 36.79-34.69 38.96-32.96 40.26-30.2 41.55-27.44 42.11-24.02 42.67-20.61 42.67-17.19L42.67-17.19Q42.67-13.38 41.92-9.99 41.16-6.59 39.62-4 38.08-1.42 35.76 0.1 33.44 1.61 30.32 1.61ZM30.91-25.63L30.91-25.63Q29.98-25.63 29.32-24.9 28.66-24.17 28.22-22.97 27.78-21.78 27.59-20.29 27.39-18.8 27.39-17.29L27.39-17.29Q27.39-15.58 27.61-13.87 27.83-12.16 28.27-10.79 28.71-9.42 29.37-8.59 30.03-7.76 30.95-7.76L30.95-7.76Q32.03-7.76 32.66-8.84 33.3-9.91 33.66-11.43 34.03-12.94 34.15-14.55 34.27-16.16 34.27-17.24L34.27-17.24Q34.27-18.55 34.1-20.02 33.93-21.48 33.54-22.73 33.15-23.97 32.52-24.8 31.88-25.63 30.91-25.63ZM73.82-20.95L73.82-20.95Q73.82-19.87 73.73-17.9 73.63-15.92 73.36-13.55 73.09-11.18 72.6-8.72 72.11-6.25 71.33-4.25 70.55-2.25 69.43-0.95 68.31 0.34 66.74 0.34L66.74 0.34Q65.28 0.34 64.06-0.51 62.84-1.37 61.86-2.61 60.88-3.86 60.15-5.27 59.42-6.69 58.93-7.86L58.93-7.86Q57.91-10.35 56.88-12.77 55.85-15.19 54.93-17.68L54.93-17.68 54.93-16.31Q54.93-14.21 54.9-12.13 54.88-10.06 54.58-8.01L54.58-8.01Q54.49-7.18 54.37-6.08 54.24-4.98 54-3.91 53.75-2.83 53.29-1.9 52.83-0.98 52.05-0.54L52.05-0.54Q51.61-0.29 51.24-0.24 50.87-0.2 50.43-0.1L50.43-0.1 50.29-0.1Q49.16-0.1 48.38-0.85 47.6-1.61 47.07-2.81 46.53-4 46.21-5.49 45.89-6.98 45.72-8.42 45.55-9.86 45.5-11.08 45.45-12.3 45.45-13.04L45.45-13.04Q45.45-14.16 45.55-16.33 45.65-18.51 45.97-21.14 46.28-23.78 46.8-26.56 47.31-29.35 48.14-31.62 48.97-33.89 50.14-35.33 51.31-36.77 52.88-36.77L52.88-36.77Q54.39-36.77 55.59-35.6 56.78-34.42 57.71-32.81 58.64-31.2 59.27-29.44 59.91-27.69 60.35-26.51L60.35-26.51Q61.18-24.22 61.96-21.95 62.74-19.68 63.47-17.33L63.47-17.33Q63.52-17.24 63.67-16.8 63.81-16.36 64.01-15.82L64.01-15.82Q64.2-15.23 64.5-14.5L64.5-14.5Q64.5-15.14 64.47-15.41 64.45-15.67 64.45-15.89 64.45-16.11 64.45-16.46 64.45-16.8 64.45-17.53L64.45-17.53Q64.4-19.14 64.37-20.75 64.35-22.36 64.35-23.93L64.35-23.93Q64.35-24.61 64.37-25.83 64.4-27.05 64.52-28.44 64.64-29.83 64.89-31.25 65.13-32.67 65.6-33.81 66.06-34.96 66.77-35.69 67.48-36.43 68.5-36.43L68.5-36.43Q69.72-36.43 70.6-35.5 71.48-34.57 72.07-33.13 72.65-31.69 72.99-29.91 73.33-28.13 73.53-26.42 73.73-24.71 73.77-23.24 73.82-21.78 73.82-20.95ZM98.92-11.72L98.92-11.72Q98.48-9.52 97.53-7.15 96.57-4.79 95.09-2.83 93.6-0.88 91.55 0.37 89.49 1.61 86.86 1.61L86.86 1.61Q84.9 1.61 83.34 0.83 81.78 0.05 80.51-1.27 79.24-2.59 78.31-4.3 77.39-6.01 76.77-7.84 76.16-9.67 75.87-11.47 75.58-13.28 75.58-14.84L75.58-14.84Q75.58-17.04 75.99-19.56 76.41-22.07 77.24-24.54 78.07-27 79.34-29.27 80.61-31.54 82.34-33.28 84.07-35.01 86.25-36.06 88.42-37.11 91.11-37.11L91.11-37.11Q92.81-37.11 94.28-36.45 95.74-35.79 96.82-34.69 97.89-33.59 98.5-32.08 99.11-30.57 99.11-28.91L99.11-28.91 99.11-28.47Q99.11-27.59 99.04-26.29 98.97-25 98.58-23.83 98.19-22.66 97.4-21.8 96.62-20.95 95.21-20.95L95.21-20.95Q93.5-20.95 92.62-21.73 91.74-22.51 91.74-24.32L91.74-24.32Q91.74-25 91.79-25.68 91.84-26.37 91.84-27.05L91.84-27.05Q91.84-28.08 91.5-28.64 91.15-29.2 90.08-29.2L90.08-29.2Q88.86-29.2 87.88-28.42 86.91-27.64 86.17-26.37 85.44-25.1 84.9-23.49 84.37-21.88 84.03-20.24 83.68-18.6 83.54-17.09 83.39-15.58 83.39-14.5L83.39-14.5Q83.39-13.62 83.49-12.48 83.59-11.33 83.9-10.28 84.22-9.23 84.86-8.5 85.49-7.76 86.52-7.76L86.52-7.76Q88.27-7.76 89.35-8.86 90.42-9.96 90.81-11.67L90.81-11.67Q90.13-11.77 89.47-11.99 88.81-12.21 88.25-12.62 87.69-13.04 87.35-13.65 87-14.26 87-15.09L87-15.09Q87-16.6 88.03-17.46 89.06-18.31 90.45-18.75 91.84-19.19 93.3-19.31 94.77-19.43 95.65-19.43L95.65-19.43Q96.28-19.43 97.5-19.34 98.72-19.24 99.92-18.92 101.12-18.6 101.99-18.02 102.87-17.43 102.87-16.5L102.87-16.5Q102.87-14.65 101.87-13.31 100.87-11.96 98.92-11.72ZM118.54-34.28L118.54-34.28Q118.54-33.15 117.84-32.32 117.13-31.49 116.15-30.96L116.15-30.96Q115.27-30.42 114.35-29.81 113.42-29.2 112.64-28.44 111.86-27.69 111.37-26.76 110.88-25.83 110.88-24.66L110.88-24.66Q110.88-23.63 111.37-22.8 111.86-21.97 112.56-21.17 113.27-20.36 114.13-19.51 114.98-18.65 115.69-17.6 116.4-16.55 116.88-15.23 117.37-13.92 117.37-12.16L117.37-12.16Q117.37-10.94 116.86-9.4 116.35-7.86 115.47-6.3 114.59-4.74 113.39-3.27 112.2-1.81 110.85-0.66 109.51 0.49 108.05 1.2 106.58 1.9 105.21 1.9L105.21 1.9Q103.7 1.9 102.53 1.07 101.36 0.24 101.36-1.42L101.36-1.42Q101.36-2.54 101.89-3.49 102.43-4.44 103.21-5.32 103.99-6.2 104.95-7.03 105.9-7.86 106.68-8.69 107.46-9.52 108-10.42 108.53-11.33 108.53-12.35L108.53-12.35Q108.53-13.77 107.53-15.26 106.53-16.75 105.31-18.33 104.09-19.92 103.09-21.58 102.09-23.24 102.09-24.95L102.09-24.95Q102.09-27.05 103.21-29.37 104.34-31.69 106.09-33.62 107.85-35.55 110.05-36.82 112.25-38.09 114.39-38.09L114.39-38.09Q116.1-38.09 117.32-37.06 118.54-36.04 118.54-34.28ZM143.79-32.32L143.79-32.32Q143.79-30.57 143.35-28.39 142.91-26.22 142.25-23.97 141.59-21.73 140.83-19.6 140.08-17.48 139.49-15.77L139.49-15.77Q139.1-14.7 138.63-13.11 138.17-11.52 137.56-9.77 136.95-8.01 136.22-6.25 135.49-4.49 134.61-3.1 133.73-1.71 132.68-0.83 131.63 0.05 130.41 0.05L130.41 0.05Q129.38 0.05 128.43-0.88 127.48-1.81 126.62-3.25 125.77-4.69 125.01-6.47 124.26-8.25 123.64-9.96 123.03-11.67 122.62-13.13 122.2-14.6 122.01-15.38L122.01-15.38Q121.03-19.19 120.15-23.07 119.27-26.95 119.27-30.86L119.27-30.86Q119.27-31.84 119.37-32.89 119.47-33.94 119.86-34.81 120.25-35.69 120.96-36.25 121.67-36.82 122.94-36.82L122.94-36.82Q124.01-36.82 124.91-35.62 125.82-34.42 126.55-32.52 127.28-30.62 127.89-28.27 128.5-25.93 129.04-23.66 129.58-21.39 130.07-19.41 130.55-17.43 131.04-16.26L131.04-16.26Q131.34-17.24 131.9-19.12 132.46-21 133.22-23.24 133.97-25.49 134.88-27.86 135.78-30.22 136.78-32.15 137.78-34.08 138.85-35.3 139.93-36.52 141.05-36.52L141.05-36.52Q141.88-36.52 142.42-36.13 142.96-35.74 143.25-35.11 143.54-34.47 143.66-33.74 143.79-33.01 143.79-32.32ZM161.41-33.15L161.41-33.15Q161.41-32.23 161-31.49 160.58-30.76 159.9-30.25 159.21-29.74 158.38-29.39 157.55-29.05 156.77-28.91L156.77-28.91Q156.67-23.39 156.36-18.26 156.04-13.13 155.36-7.67L155.36-7.67 155.65-7.67Q156.43-7.67 157.19-7.5 157.94-7.32 158.55-6.91 159.16-6.49 159.53-5.88 159.9-5.27 159.9-4.39L159.9-4.39Q159.9-3.27 159.19-2.44 158.48-1.61 157.33-1.03 156.19-0.44 154.77-0.05 153.35 0.34 151.94 0.56 150.52 0.78 149.25 0.88 147.98 0.98 147.2 0.98L147.2 0.98Q146.62 0.98 145.76 0.93 144.91 0.88 144.15 0.63 143.39 0.39 142.86-0.1 142.32-0.59 142.32-1.42L142.32-1.42Q142.32-2.44 142.73-3.25 143.15-4.05 143.83-4.69 144.52-5.32 145.37-5.71 146.23-6.1 147.1-6.3L147.1-6.3Q147.45-8.98 147.74-11.65 148.03-14.31 148.13-17.04L148.13-17.04Q148.23-19.82 148.32-22.53 148.42-25.24 148.52-27.98L148.52-27.98Q148.18-27.93 147.89-27.91 147.59-27.88 147.35-27.88L147.35-27.88Q146.66-27.88 145.88-28.03 145.1-28.17 144.42-28.54 143.74-28.91 143.27-29.44 142.81-29.98 142.81-30.81L142.81-30.81Q142.81-32.47 144.2-33.54 145.59-34.62 147.52-35.21 149.45-35.79 151.45-36.01 153.45-36.23 154.67-36.23L154.67-36.23Q155.36-36.23 156.48-36.13 157.6-36.04 158.7-35.69 159.8-35.35 160.61-34.77 161.41-34.18 161.41-33.15ZM190.51-20.95L190.51-20.95Q190.51-19.87 190.41-17.9 190.31-15.92 190.05-13.55 189.78-11.18 189.29-8.72 188.8-6.25 188.02-4.25 187.24-2.25 186.12-0.95 184.99 0.34 183.43 0.34L183.43 0.34Q181.96 0.34 180.74-0.51 179.52-1.37 178.55-2.61 177.57-3.86 176.84-5.27 176.11-6.69 175.62-7.86L175.62-7.86Q174.59-10.35 173.57-12.77 172.54-15.19 171.61-17.68L171.61-17.68 171.61-16.31Q171.61-14.21 171.59-12.13 171.56-10.06 171.27-8.01L171.27-8.01Q171.17-7.18 171.05-6.08 170.93-4.98 170.69-3.91 170.44-2.83 169.98-1.9 169.51-0.98 168.73-0.54L168.73-0.54Q168.29-0.29 167.93-0.24 167.56-0.2 167.12-0.1L167.12-0.1 166.97-0.1Q165.85-0.1 165.07-0.85 164.29-1.61 163.75-2.81 163.21-4 162.9-5.49 162.58-6.98 162.41-8.42 162.24-9.86 162.19-11.08 162.14-12.3 162.14-13.04L162.14-13.04Q162.14-14.16 162.24-16.33 162.34-18.51 162.65-21.14 162.97-23.78 163.48-26.56 164-29.35 164.83-31.62 165.66-33.89 166.83-35.33 168-36.77 169.56-36.77L169.56-36.77Q171.08-36.77 172.27-35.6 173.47-34.42 174.4-32.81 175.32-31.2 175.96-29.44 176.59-27.69 177.03-26.51L177.03-26.51Q177.86-24.22 178.64-21.95 179.43-19.68 180.16-17.33L180.16-17.33Q180.21-17.24 180.35-16.8 180.5-16.36 180.7-15.82L180.7-15.82Q180.89-15.23 181.18-14.5L181.18-14.5Q181.18-15.14 181.16-15.41 181.13-15.67 181.13-15.89 181.13-16.11 181.13-16.46 181.13-16.8 181.13-17.53L181.13-17.53Q181.09-19.14 181.06-20.75 181.04-22.36 181.04-23.93L181.04-23.93Q181.04-24.61 181.06-25.83 181.09-27.05 181.21-28.44 181.33-29.83 181.57-31.25 181.82-32.67 182.28-33.81 182.75-34.96 183.45-35.69 184.16-36.43 185.19-36.43L185.19-36.43Q186.41-36.43 187.29-35.5 188.17-34.57 188.75-33.13 189.34-31.69 189.68-29.91 190.02-28.13 190.22-26.42 190.41-24.71 190.46-23.24 190.51-21.78 190.51-20.95ZM215.02-7.67L215.02-7.67Q215.02-6.74 214.53-5.86L214.53-5.86Q214.04-5.03 212.24-3.91 210.43-2.78 208.23-1.78 206.03-0.78 203.98-0.07 201.93 0.63 200.96 0.63L200.96 0.63Q200.27 0.63 199.35 0.32 198.42 0 197.49-0.49 196.56-0.98 195.81-1.61 195.05-2.25 194.71-2.83L194.71-2.83Q194.51-3.17 194.34-4.2 194.17-5.22 194.05-6.59 193.93-7.96 193.83-9.5 193.73-11.04 193.66-12.43 193.58-13.82 193.56-14.89 193.53-15.97 193.53-16.46L193.53-16.46Q193.53-18.26 193.66-20.61 193.78-22.95 194.12-25.32 194.46-27.69 195.12-29.86 195.78-32.03 196.9-33.54L196.9-33.54Q197.25-33.98 198.27-34.47 199.3-34.96 200.69-35.4 202.08-35.84 203.69-36.23 205.3-36.62 206.79-36.89 208.28-37.16 209.5-37.33 210.72-37.5 211.36-37.5L211.36-37.5Q212.09-37.5 212.75-37.18 213.41-36.87 213.87-36.33 214.34-35.79 214.6-35.13 214.87-34.47 214.87-33.74L214.87-33.74Q214.87-33.11 214.7-32.67 214.53-32.23 214.19-31.69L214.19-31.69Q213.7-31.05 212.14-30.18 210.58-29.3 208.74-28.44 206.91-27.59 205.23-26.9 203.54-26.22 202.86-25.93L202.86-25.93Q202.67-24.8 202.45-23.66 202.23-22.51 202.13-21.34L202.13-21.34Q203.64-22.12 205.55-22.8 207.45-23.49 209.16-23.49L209.16-23.49Q212.63-23.49 212.63-20.07L212.63-20.07Q212.63-19.24 212.31-18.6 211.99-17.97 211.48-17.48 210.97-16.99 210.31-16.63 209.65-16.26 209.01-15.92L209.01-15.92Q207.45-15.09 205.74-14.48 204.03-13.87 202.32-13.28L202.32-13.28Q202.23-12.89 202.13-12.43 202.03-11.96 202.03-11.52L202.03-11.52Q202.03-10.84 202.13-10.16 202.23-9.47 202.32-8.79L202.32-8.79Q202.91-8.98 204.2-9.42 205.5-9.86 206.91-10.3 208.33-10.74 209.65-11.06 210.97-11.38 211.6-11.38L211.6-11.38Q212.33-11.38 212.97-11.06 213.6-10.74 214.04-10.23 214.48-9.72 214.75-9.03 215.02-8.35 215.02-7.67Z" opacity="1" transform="matrix(1,0,0,1,0,0)" fill="#ffffff" class="undefined-text-0" data-fill-palette-color="primary" id="text-0"></path></svg></g></svg></g></svg></g></svg></g></svg></g></svg></g></svg></g><g mask="url(#7341a814-0a12-46de-9536-b6066ad475b4)"><g transform="matrix(3.0049019607843137, 0, 0, 3.0049019607843137, 77.56392156862745, 1)"><svg xmlns="http://www.w3.org/2000/svg" xmlns:xlink="http://www.w3.org/1999/xlink" version="1.1" x="0" y="0" viewBox="8 7.200000000000001 80 81.6" style="enable-background:new 0 0 96 96;" xml:space="preserve" height="81.6" width="80" class="icon-none" data-fill-palette-color="accent" id="none"><g fill="#ffffff" data-fill-palette-color="accent"><path d="M32 61.8c-2.5-1.9-5.6-3-9-3-8.3 0-15 6.7-15 15s6.7 15 15 15 15-6.7 15-15c0-0.3 0-0.7-0.1-1H38V41.9L82 31v10.6c-2.5-1.9-5.6-3-9-3-8.3 0-15 6.7-15 15s6.7 15 15 15 15-6.7 15-15V26v-1.3V11.8c0-2.6-2.1-4.6-4.7-4.6H83L36.2 18.7c-2.4 0.2-4.2 2.2-4.2 4.6v14.2c0 0.1 0 0.1 0 0.1l0 0V61.8zM23 82.6c-5 0-9-4-9-9s4-9 9-9 9 4 9 9S28 82.6 23 82.6zM73 62.6c-5 0-9-4-9-9s4-9 9-9 9 4 9 9S78 62.6 73 62.6zM38 24.5l44-10.9v11.1 0.2L38 35.7V24.5z" fill="#ffffff" data-fill-palette-color="accent"></path></g></svg></g></g></svg></g><defs><mask id="7341a814-0a12-46de-9536-b6066ad475b4"><rect width="640" height="400" fill="white"></rect><rect width="348.05760000000004" height="86.72434514276154" fill="black" x="145.97119999999998" y="156.63782742861923" id="transform-me" transform="matrix(1,0,0,1,-122.24000000000001,-76.4)"></rect></mask></defs></svg><rect width="395.52" height="247.2" fill="none" stroke="none" visibility="hidden"></rect></g></svg></g></svg>